<svg width="658" height="1405" viewBox="0 0 658 1405" fill="none" xmlns="http://www.w3.org/2000/svg">
<g clip-path="url(#clip0_374_2514)">
<rect width="658" height="1405" fill="white"/>
<path d="M-57.0701 776.109L-105.942 181.482C-105.942 181.482 -48.6104 22.1411 129.124 -114.004C306.859 -250.149 508.278 -368.988 795.945 -441.366C1083.61 -513.745 1176.38 -429.915 1176.38 -429.915C1182.01 -358.579 1216.14 53.0873 1217.69 72.6946C901.026 -67.7098 94.2172 384.001 -57.0701 776.109Z" fill="#F0BA41"/>
<path d="M660.525 698.178L663.3 101.553C663.3 101.553 600.769 -52.8908 431.669 -174.92C262.568 -296.949 73.386 -399.896 -190.07 -449.869C-453.525 -499.842 -531.071 -409.105 -531.071 -409.105C-531.199 -337.547 -533.381 75.5247 -533.416 95.1932C-258.631 -69.2198 497.48 318.909 660.525 698.178Z" fill="#D63421"/>
<path d="M751.014 620.419L753.789 23.794C753.789 23.794 691.258 -130.65 522.158 -252.679C353.057 -374.708 163.875 -477.655 -99.5804 -527.628C-363.036 -577.601 -440.582 -486.864 -440.582 -486.864C-440.709 -415.306 -442.892 -2.2343 -442.927 17.4341C-168.141 -146.979 587.969 241.15 751.014 620.419Z" fill="#D63421"/>
<path d="M660.089 684.075L669.254 1280.64C669.254 1280.64 601.438 1435.81 415.031 1559.81C228.624 1683.82 19.7386 1788.98 -272.109 1842.04C-563.957 1895.1 -650.935 1805.28 -650.935 1805.28C-651.807 1733.73 -658.442 1320.7 -658.681 1301.04C-352.074 1462.22 483.026 1065.24 660.089 684.075Z" fill="#2D3480"/>
<path d="M-28.2886 620.155L-64.5614 1215.68C-64.5614 1215.68 -10.8019 1373.39 151.18 1504.73C313.161 1636.06 496.264 1749.47 756.497 1814.15C1016.73 1878.84 1099.25 1792.6 1099.25 1792.6C1103.4 1721.16 1128.77 1308.87 1129.91 1289.23C846.325 1437.96 113.202 1007.98 -28.2886 620.155Z" fill="#D63421"/>
<path d="M-84.0132 761.099L-120.286 1356.63C-120.286 1356.63 -66.5265 1514.34 95.4549 1645.67C257.436 1777 440.539 1890.41 700.773 1955.1C961.007 2019.79 1043.53 1933.55 1043.53 1933.55C1047.67 1862.11 1073.05 1449.81 1074.18 1430.18C790.6 1578.9 57.4777 1148.93 -84.0132 761.099Z" fill="#D63421"/>
<path d="M213.464 722V704.5H221.939C223.689 704.5 225.039 704.95 225.989 705.85C226.939 706.733 227.414 707.867 227.414 709.25C227.414 711 226.697 712.25 225.264 713C226.197 713.35 226.922 713.883 227.439 714.6C227.972 715.317 228.239 716.183 228.239 717.2C228.239 718.633 227.756 719.792 226.789 720.675C225.822 721.558 224.472 722 222.739 722H213.464ZM222.339 714.475H216.739V719.1H222.364C223.131 719.1 223.731 718.892 224.164 718.475C224.614 718.042 224.839 717.5 224.839 716.85C224.839 716.2 224.614 715.642 224.164 715.175C223.714 714.708 223.106 714.475 222.339 714.475ZM221.664 707.4H216.739V711.675H221.964C222.564 711.675 223.056 711.467 223.439 711.05C223.822 710.633 224.014 710.117 224.014 709.5C224.014 708.9 223.797 708.4 223.364 708C222.947 707.6 222.381 707.4 221.664 707.4ZM232.449 712.95L231.149 710.5C232.683 709.567 234.391 709.1 236.274 709.1C240.191 709.1 242.149 711.117 242.149 715.15V722H238.999V720.525C237.866 721.692 236.549 722.275 235.049 722.275C233.699 722.275 232.616 721.917 231.799 721.2C230.999 720.483 230.599 719.492 230.599 718.225C230.599 716.892 231.041 715.85 231.924 715.1C232.824 714.35 234.016 713.975 235.499 713.975C236.683 713.975 237.849 714.225 238.999 714.725C238.933 712.808 237.941 711.85 236.024 711.85C234.958 711.85 233.766 712.217 232.449 712.95ZM235.824 719.9C237.041 719.9 238.099 719.333 238.999 718.2V716.8C238.099 716.367 237.174 716.15 236.224 716.15C235.474 716.15 234.883 716.325 234.449 716.675C234.016 717.008 233.799 717.475 233.799 718.075C233.799 718.658 233.991 719.108 234.374 719.425C234.758 719.742 235.241 719.9 235.824 719.9ZM254.382 722V714.825C254.382 713.842 254.157 713.125 253.707 712.675C253.274 712.225 252.707 712 252.007 712C251.074 712 250.307 712.342 249.707 713.025C249.107 713.708 248.807 714.5 248.807 715.4V722H245.582V709.35H248.807V711.15C249.741 709.783 251.124 709.1 252.957 709.1C254.357 709.1 255.482 709.533 256.332 710.4C257.182 711.267 257.607 712.592 257.607 714.375V722H254.382ZM269.936 716.975L272.911 717.9C272.461 719.217 271.695 720.275 270.611 721.075C269.545 721.875 268.295 722.275 266.861 722.275C264.995 722.275 263.445 721.65 262.211 720.4C260.995 719.133 260.386 717.567 260.386 715.7C260.386 713.817 260.995 712.25 262.211 711C263.445 709.733 264.995 709.1 266.861 709.1C268.295 709.1 269.545 709.5 270.611 710.3C271.695 711.083 272.461 712.133 272.911 713.45L269.936 714.375C269.386 712.792 268.361 712 266.861 712C265.895 712 265.111 712.35 264.511 713.05C263.911 713.733 263.611 714.617 263.611 715.7C263.611 716.767 263.911 717.65 264.511 718.35C265.111 719.033 265.895 719.375 266.861 719.375C267.595 719.375 268.228 719.167 268.761 718.75C269.295 718.317 269.686 717.725 269.936 716.975ZM274.913 715.7C274.913 713.817 275.538 712.25 276.788 711C278.038 709.733 279.604 709.1 281.488 709.1C283.371 709.1 284.938 709.733 286.188 711C287.438 712.25 288.063 713.817 288.063 715.7C288.063 717.567 287.438 719.133 286.188 720.4C284.938 721.65 283.371 722.275 281.488 722.275C279.604 722.275 278.038 721.65 276.788 720.4C275.538 719.133 274.913 717.567 274.913 715.7ZM278.138 715.7C278.138 716.75 278.446 717.625 279.063 718.325C279.696 719.025 280.504 719.375 281.488 719.375C282.471 719.375 283.271 719.033 283.888 718.35C284.504 717.65 284.813 716.767 284.813 715.7C284.813 714.617 284.504 713.733 283.888 713.05C283.271 712.35 282.471 712 281.488 712C280.504 712 279.704 712.35 279.088 713.05C278.471 713.733 278.154 714.617 278.138 715.7ZM306.467 711.025V704.5H309.717V722H306.467V720.35C305.5 721.633 304.15 722.275 302.417 722.275C300.7 722.275 299.308 721.65 298.242 720.4C297.175 719.15 296.642 717.583 296.642 715.7C296.642 713.8 297.175 712.225 298.242 710.975C299.308 709.725 300.7 709.1 302.417 709.1C304.15 709.1 305.5 709.742 306.467 711.025ZM306.542 715.7C306.542 714.633 306.225 713.75 305.592 713.05C304.975 712.35 304.183 712 303.217 712C302.25 712 301.458 712.35 300.842 713.05C300.225 713.733 299.917 714.617 299.917 715.7C299.917 716.75 300.225 717.625 300.842 718.325C301.475 719.025 302.267 719.375 303.217 719.375C304.183 719.375 304.975 719.025 305.592 718.325C306.225 717.625 306.542 716.75 306.542 715.7ZM322.757 718.125L324.482 720.25C323.132 721.6 321.424 722.275 319.357 722.275C317.291 722.275 315.649 721.642 314.432 720.375C313.232 719.108 312.632 717.542 312.632 715.675C312.632 713.792 313.232 712.225 314.432 710.975C315.632 709.725 317.141 709.1 318.957 709.1C320.807 709.1 322.299 709.725 323.432 710.975C324.582 712.208 325.157 713.625 325.157 715.225C325.157 715.742 325.107 716.217 325.007 716.65H315.957C316.141 717.533 316.532 718.233 317.132 718.75C317.749 719.25 318.541 719.5 319.507 719.5C320.741 719.5 321.824 719.042 322.757 718.125ZM320.907 712.55C320.407 712.067 319.774 711.825 319.007 711.825C318.241 711.825 317.591 712.058 317.057 712.525C316.524 712.975 316.166 713.592 315.982 714.375H321.907C321.757 713.625 321.424 713.017 320.907 712.55ZM337.504 720.3V726.475H334.279V709.35H337.504V711.075C338.47 709.758 339.829 709.1 341.579 709.1C343.295 709.1 344.687 709.725 345.754 710.975C346.82 712.208 347.354 713.775 347.354 715.675C347.354 717.575 346.82 719.15 345.754 720.4C344.687 721.65 343.295 722.275 341.579 722.275C339.829 722.275 338.47 721.617 337.504 720.3ZM338.354 713.05C337.737 713.733 337.429 714.608 337.429 715.675C337.429 716.742 337.737 717.625 338.354 718.325C338.987 719.025 339.787 719.375 340.754 719.375C341.72 719.375 342.512 719.025 343.129 718.325C343.762 717.625 344.079 716.742 344.079 715.675C344.079 714.608 343.762 713.733 343.129 713.05C342.512 712.35 341.72 712 340.754 712C339.787 712 338.987 712.35 338.354 713.05ZM353.519 709.35V713.825C353.902 712.642 354.511 711.592 355.344 710.675C356.177 709.742 357.194 709.217 358.394 709.1V712.875C357.161 713.058 356.036 713.625 355.019 714.575C354.019 715.508 353.519 716.567 353.519 717.75V722H350.294V709.35H353.519ZM361.771 712.95L360.471 710.5C362.004 709.567 363.712 709.1 365.596 709.1C369.512 709.1 371.471 711.117 371.471 715.15V722H368.321V720.525C367.187 721.692 365.871 722.275 364.371 722.275C363.021 722.275 361.937 721.917 361.121 721.2C360.321 720.483 359.921 719.492 359.921 718.225C359.921 716.892 360.362 715.85 361.246 715.1C362.146 714.35 363.337 713.975 364.821 713.975C366.004 713.975 367.171 714.225 368.321 714.725C368.254 712.808 367.262 711.85 365.346 711.85C364.279 711.85 363.087 712.217 361.771 712.95ZM365.146 719.9C366.362 719.9 367.421 719.333 368.321 718.2V716.8C367.421 716.367 366.496 716.15 365.546 716.15C364.796 716.15 364.204 716.325 363.771 716.675C363.337 717.008 363.121 717.475 363.121 718.075C363.121 718.658 363.312 719.108 363.696 719.425C364.079 719.742 364.562 719.9 365.146 719.9ZM366.146 708.175L363.796 707.225L367.171 702.475L369.546 704.375L366.146 708.175ZM383.804 716.975L386.779 717.9C386.329 719.217 385.562 720.275 384.479 721.075C383.412 721.875 382.162 722.275 380.729 722.275C378.862 722.275 377.312 721.65 376.079 720.4C374.862 719.133 374.254 717.567 374.254 715.7C374.254 713.817 374.862 712.25 376.079 711C377.312 709.733 378.862 709.1 380.729 709.1C382.162 709.1 383.412 709.5 384.479 710.3C385.562 711.083 386.329 712.133 386.779 713.45L383.804 714.375C383.254 712.792 382.229 712 380.729 712C379.762 712 378.979 712.35 378.379 713.05C377.779 713.733 377.479 714.617 377.479 715.7C377.479 716.767 377.779 717.65 378.379 718.35C378.979 719.033 379.762 719.375 380.729 719.375C381.462 719.375 382.095 719.167 382.629 718.75C383.162 718.317 383.554 717.725 383.804 716.975ZM388.18 712.225V709.35H390.455V706.05L393.68 704.975V709.35H397.88V712.225H393.68V717.275C393.68 718.642 394.222 719.325 395.305 719.325C395.855 719.325 396.555 719.092 397.405 718.625L398.48 721.25C397.397 721.933 396.18 722.275 394.83 722.275C391.913 722.275 390.455 720.542 390.455 717.075V712.225H388.18ZM400.563 722V709.35H403.788V722H400.563ZM403.563 707.2C403.179 707.583 402.713 707.775 402.163 707.775C401.613 707.775 401.138 707.583 400.738 707.2C400.354 706.817 400.163 706.35 400.163 705.8C400.163 705.25 400.354 704.783 400.738 704.4C401.138 704.017 401.613 703.825 402.163 703.825C402.713 703.825 403.179 704.017 403.563 704.4C403.963 704.783 404.163 705.25 404.163 705.8C404.163 706.35 403.963 706.817 403.563 707.2ZM416.299 716.975L419.274 717.9C418.824 719.217 418.057 720.275 416.974 721.075C415.907 721.875 414.657 722.275 413.224 722.275C411.357 722.275 409.807 721.65 408.574 720.4C407.357 719.133 406.749 717.567 406.749 715.7C406.749 713.817 407.357 712.25 408.574 711C409.807 709.733 411.357 709.1 413.224 709.1C414.657 709.1 415.907 709.5 416.974 710.3C418.057 711.083 418.824 712.133 419.274 713.45L416.299 714.375C415.749 712.792 414.724 712 413.224 712C412.257 712 411.474 712.35 410.874 713.05C410.274 713.733 409.974 714.617 409.974 715.7C409.974 716.767 410.274 717.65 410.874 718.35C411.474 719.033 412.257 719.375 413.224 719.375C413.957 719.375 414.59 719.167 415.124 718.75C415.657 718.317 416.049 717.725 416.299 716.975ZM423.05 712.95L421.75 710.5C423.283 709.567 424.992 709.1 426.875 709.1C430.792 709.1 432.75 711.117 432.75 715.15V722H429.6V720.525C428.467 721.692 427.15 722.275 425.65 722.275C424.3 722.275 423.217 721.917 422.4 721.2C421.6 720.483 421.2 719.492 421.2 718.225C421.2 716.892 421.642 715.85 422.525 715.1C423.425 714.35 424.617 713.975 426.1 713.975C427.283 713.975 428.45 714.225 429.6 714.725C429.533 712.808 428.542 711.85 426.625 711.85C425.558 711.85 424.367 712.217 423.05 712.95ZM426.425 719.9C427.642 719.9 428.7 719.333 429.6 718.2V716.8C428.7 716.367 427.775 716.15 426.825 716.15C426.075 716.15 425.483 716.325 425.05 716.675C424.617 717.008 424.4 717.475 424.4 718.075C424.4 718.658 424.592 719.108 424.975 719.425C425.358 719.742 425.842 719.9 426.425 719.9ZM435.508 718.95L438.533 718.025C438.816 719.175 439.716 719.75 441.233 719.75C442.699 719.75 443.433 719.383 443.433 718.65C443.433 718.5 443.399 718.358 443.333 718.225C443.266 718.092 443.158 717.975 443.008 717.875C442.858 717.775 442.708 717.692 442.558 717.625C442.424 717.542 442.233 717.467 441.983 717.4C441.749 717.333 441.549 717.283 441.383 717.25C441.216 717.2 440.999 717.142 440.733 717.075C440.466 717.008 440.266 716.958 440.133 716.925C438.699 716.558 437.583 716.067 436.783 715.45C435.999 714.833 435.608 713.975 435.608 712.875C435.608 711.692 436.074 710.767 437.008 710.1C437.941 709.433 439.199 709.1 440.783 709.1C442.383 709.1 443.708 709.45 444.758 710.15C445.808 710.85 446.333 711.833 446.333 713.1V713.25H443.208V713.2C443.208 712.7 442.999 712.317 442.583 712.05C442.166 711.767 441.583 711.625 440.833 711.625C440.183 711.625 439.683 711.733 439.333 711.95C438.999 712.167 438.833 712.442 438.833 712.775C438.833 712.892 438.849 713 438.883 713.1C438.916 713.183 438.966 713.267 439.033 713.35C439.116 713.433 439.191 713.508 439.258 713.575C439.341 713.642 439.449 713.708 439.583 713.775C439.733 713.825 439.866 713.875 439.983 713.925C440.099 713.958 440.249 714.008 440.433 714.075C440.633 714.125 440.799 714.167 440.933 714.2C441.066 714.233 441.249 714.283 441.483 714.35C441.716 714.4 441.899 714.442 442.033 714.475C442.583 714.625 443.041 714.758 443.408 714.875C443.774 714.992 444.183 715.167 444.633 715.4C445.083 715.617 445.441 715.858 445.708 716.125C445.974 716.375 446.199 716.708 446.383 717.125C446.566 717.525 446.658 717.983 446.658 718.5C446.658 719.733 446.174 720.675 445.208 721.325C444.258 721.958 442.958 722.275 441.308 722.275C439.741 722.275 438.441 721.992 437.408 721.425C436.391 720.858 435.758 720.033 435.508 718.95Z" fill="#04003B"/>
<path d="M288.291 672V627.2H309.987C314.467 627.2 317.923 628.352 320.355 630.656C322.787 632.917 324.003 635.819 324.003 639.36C324.003 643.84 322.169 647.04 318.499 648.96C320.889 649.856 322.745 651.221 324.067 653.056C325.433 654.891 326.115 657.109 326.115 659.712C326.115 663.381 324.878 666.347 322.403 668.608C319.929 670.869 316.473 672 312.035 672H288.291ZM311.011 652.736H296.675V664.576H311.075C313.038 664.576 314.574 664.043 315.683 662.976C316.835 661.867 317.411 660.48 317.411 658.816C317.411 657.152 316.835 655.723 315.683 654.528C314.531 653.333 312.974 652.736 311.011 652.736ZM309.283 634.624H296.675V645.568H310.051C311.587 645.568 312.846 645.035 313.827 643.968C314.809 642.901 315.299 641.579 315.299 640C315.299 638.464 314.745 637.184 313.635 636.16C312.569 635.136 311.118 634.624 309.283 634.624ZM335.166 672V627.2H354.11C359.657 627.2 363.966 628.779 367.038 631.936C370.153 635.093 371.71 639.04 371.71 643.776C371.71 648.555 370.153 652.523 367.038 655.68C363.924 658.837 359.614 660.416 354.11 660.416H343.55V672H335.166ZM343.55 652.672H352.382C359.465 652.672 363.006 649.707 363.006 643.776C363.006 637.888 359.465 634.944 352.382 634.944H343.55V652.672Z" fill="#04003B"/>
</g>
<defs>
<clipPath id="clip0_374_2514">
<rect width="658" height="1405" fill="white"/>
</clipPath>
</defs>
</svg>
